<svg width="24" height="24" viewBox="0 0 24 24" fill="none" xmlns="http://www.w3.org/2000/svg">
<g clip-path="url(#clip0_1476_6939)">
<path d="M24 10.5469C24 14.1038 22.2248 17.3977 19.2516 19.358L4.64203 4.74844C6.60234 1.77516 9.89625 0 13.4531 0C19.283 0 24 4.71797 24 10.5469Z" fill="#76E2F8"/>
<path d="M24 10.5469C24 14.1038 22.2248 17.3977 19.2516 19.358L13.4531 13.5595V0C19.283 0 24 4.71797 24 10.5469Z" fill="#4BB9EC"/>
<path d="M15.5164 8.48362L17.5312 7.89844L18.0063 5.99367C16.0982 4.08558 13.4614 2.90625 10.5469 2.90625L10.0312 4.61719L10.5469 6.42187C12.4854 6.42187 14.2432 7.21041 15.5164 8.48362Z" fill="#F30051"/>
<path d="M3.51562 13.4531C3.51562 11.5146 4.30416 9.75678 5.57737 8.48361L4.38281 6.51561L3.08742 5.99365C1.17933 7.90179 0 10.5386 0 13.4531L1.80469 13.875L3.51562 13.4531Z" fill="#FF4949"/>
<path d="M21.0938 13.4531L19.4531 13.0547L17.5781 13.4531C17.5781 15.3916 16.7896 17.1495 15.5164 18.4227L16.5235 20.3906L18.0063 20.9126C19.9144 19.0044 21.0938 16.3677 21.0938 13.4531Z" fill="#F30051"/>
<path d="M5.57739 18.4226L4.0547 19.0523L3.08743 20.9126C4.99557 22.8207 7.63234 24 10.5469 24L11.1563 22.1953L10.5469 20.4844C8.60837 20.4844 6.85056 19.6958 5.57739 18.4226Z" fill="#FF4949"/>
<path d="M10.5469 6.42188V2.90625C7.63211 2.90625 4.99543 4.08567 3.08743 5.99367L5.57734 8.48358C6.85056 7.21045 8.60837 6.42188 10.5469 6.42188Z" fill="#575F64"/>
<path d="M3.51562 13.4531H0C0 16.3679 1.17942 19.0046 3.08742 20.9126L5.57733 18.4227C4.30416 17.1495 3.51562 15.3916 3.51562 13.4531Z" fill="#575F64"/>
<path d="M10.5469 5.71875C6.28219 5.71875 2.8125 9.18844 2.8125 13.4531C2.8125 17.7178 6.28219 21.1875 10.5469 21.1875C14.8116 21.1875 18.2812 17.7178 18.2812 13.4531C18.2812 9.18844 14.8116 5.71875 10.5469 5.71875Z" fill="#575F64"/>
<path d="M17.5781 13.4531H21.0937C21.0937 10.5383 19.9143 7.90165 18.0063 5.99365L15.5164 8.48356C16.7896 9.75678 17.5781 11.5146 17.5781 13.4531Z" fill="#474F54"/>
<path d="M10.5469 20.4844V24C13.4617 24 16.0983 22.8206 18.0063 20.9126L15.5164 18.4227C14.2432 19.6958 12.4854 20.4844 10.5469 20.4844Z" fill="#474F54"/>
<path d="M18.2812 13.4531C18.2812 17.7178 14.8116 21.1875 10.5469 21.1875V5.71875C14.8116 5.71875 18.2812 9.18844 18.2812 13.4531Z" fill="#474F54"/>
<path d="M10.5469 19.7812C14.0418 19.7812 16.875 16.9481 16.875 13.4531C16.875 9.9582 14.0418 7.125 10.5469 7.125C7.05195 7.125 4.21875 9.9582 4.21875 13.4531C4.21875 16.9481 7.05195 19.7812 10.5469 19.7812Z" fill="#F5FAFF"/>
<path d="M16.875 13.4531C16.875 16.9425 14.0363 19.7812 10.5469 19.7812V7.125C14.0363 7.125 16.875 9.96375 16.875 13.4531Z" fill="#DFE9EE"/>
<path d="M11.25 15.7326V16.9687H12.6563V18.375H8.4375V16.9687H9.84375V15.7326C9.52594 15.8967 9.17485 15.9844 8.80266 15.9844C7.43016 15.9844 6.35532 14.8439 6.35532 13.388C6.35532 11.8594 7.5436 10.8562 9.18797 9.46827C10.0922 8.70514 10.0847 8.70139 10.5469 8.30389C10.9931 8.68827 11.002 8.70561 11.9058 9.46827C13.3847 10.7166 14.7384 11.7825 14.7384 13.388C14.7384 14.8439 13.6636 15.9844 12.2911 15.9844C11.9189 15.9844 11.5678 15.8967 11.25 15.7326Z" fill="#575F64"/>
<path d="M11.25 15.7326V16.9687H12.6562V18.375H10.5469V8.30389C10.9931 8.68827 11.002 8.70561 11.9058 9.46827C13.3847 10.7166 14.7384 11.7825 14.7384 13.388C14.7384 14.8439 13.6636 15.9844 12.2911 15.9844C11.9189 15.9844 11.5678 15.8967 11.25 15.7326Z" fill="#474F54"/>
</g>
<defs>
<clipPath id="clip0_1476_6939">
<rect width="24" height="24" fill="white"/>
</clipPath>
</defs>
</svg>
