<svg width="32" height="32" viewBox="0 0 32 32" fill="none" xmlns="http://www.w3.org/2000/svg">
<path d="M21.0325 32H20.2542C17.3915 32 15.0625 29.671 15.0625 26.8082V23.4617H16.9374V26.8082C16.9374 28.6371 18.4254 30.125 20.2542 30.125H21.0325V32Z" fill="#1BC667"/>
<path d="M28.0372 13.8852L27.3082 13.1038L28.0369 12.3212C28.7229 11.5847 29.1008 10.6217 29.1008 9.60971C29.1008 8.5449 28.6876 7.54534 27.9372 6.79496C27.1855 6.04315 26.1859 5.62915 25.1226 5.62915C24.0594 5.62915 23.0598 6.04321 22.308 6.79509L19.1061 8.15271L16.0005 13.1033L18.9309 17.5655L22.308 19.411C23.0599 20.1629 24.0594 20.577 25.1226 20.577C26.1859 20.577 27.1854 20.163 27.9372 19.4111C28.6891 18.6592 29.1032 17.6595 29.1032 16.5963C29.1032 15.5852 28.7246 14.6224 28.0372 13.8852Z" fill="#1BC667"/>
<path d="M9.6921 6.79509C8.94029 6.04321 7.94079 5.62915 6.87748 5.62915C5.81423 5.62915 4.81454 6.04321 4.06291 6.79496C3.31248 7.54534 2.89929 8.54496 2.89929 9.60971C2.89929 10.6218 3.27723 11.5847 3.96323 12.3212L4.69191 13.1038L3.96285 13.8852C3.27548 14.6224 2.89685 15.5852 2.89685 16.5963C2.89685 17.6595 3.31091 18.6591 4.06285 19.4111C4.8146 20.1629 5.81416 20.577 6.87741 20.577C7.9406 20.577 8.9401 20.1629 9.69204 19.411L13.0652 17.6067L16.0005 13.1033L13.0272 8.79421L9.6921 6.79509Z" fill="#6DE349"/>
<path d="M15.2182 1.0662C14.4817 0.380135 13.5187 0.00219727 12.5067 0.00219727C11.4419 0.00219727 10.4423 0.415385 9.69194 1.16582C8.94012 1.91751 8.52612 2.91713 8.52612 3.98038C8.52612 5.04363 8.94012 6.0432 9.69206 6.79501L15.0625 12.0964L16.0005 13.1033L18.5769 6.55257L16.0007 1.79488L15.2182 1.0662Z" fill="#ACF745"/>
<path d="M22.3081 1.166C21.5561 0.414062 20.5564 0 19.4932 0C18.4822 0 17.5194 0.378563 16.7821 1.066L16.0007 1.795L16.0005 13.1034L16.9375 12.0965L22.308 6.79519C23.0599 6.04331 23.474 5.04375 23.474 3.98056C23.4739 2.91731 23.0598 1.91775 22.3081 1.166Z" fill="#6DE349"/>
<path d="M15.2182 25.1399C14.4817 25.8259 13.5187 26.2038 12.5067 26.2038C11.4419 26.2038 10.4423 25.7906 9.69194 25.0402C8.94012 24.2885 8.52612 23.2889 8.52612 22.2256C8.52612 21.1624 8.94012 20.1628 9.69206 19.411L15.0625 13.9713L16.0005 13.1033L18.5769 19.6535L16.0007 24.4112L15.2182 25.1399Z" fill="#ACF745"/>
<path d="M22.3081 25.0402C21.5561 25.7921 20.5564 26.2062 19.4932 26.2062C18.4822 26.2062 17.5194 25.8276 16.7821 25.1402L16.0007 24.4111L16.0005 13.1033L16.9375 13.9713L22.308 19.411C23.0599 20.1629 23.474 21.1625 23.474 22.2256C23.4739 23.2889 23.0598 24.2885 22.3081 25.0402Z" fill="#6DE349"/>
<path d="M15.0625 7.80249V12.0964H10.7686V13.9714H15.0625V18.2653H16L16.6117 13.1034L16 7.80249H15.0625Z" fill="#1BC667"/>
<path d="M16.9375 12.0964V7.80249H16V18.2653H16.9375V13.9714H21.2314V12.0964H16.9375Z" fill="#1BAC68"/>
</svg>
